<svg xmlns="http://www.w3.org/2000/svg" width="1200" height="400" viewBox="0 0 1200 400" role="img" aria-label="Lume — a command center for a fleet of coding agents">
  <defs>
    <radialGradient id="glow" cx="22%" cy="32%" r="42%">
      <stop offset="0%" stop-color="#5fa8ff" stop-opacity="0.14"/>
      <stop offset="100%" stop-color="#5fa8ff" stop-opacity="0"/>
    </radialGradient>
    <linearGradient id="bg" x1="0" y1="0" x2="0" y2="1">
      <stop offset="0%" stop-color="#0c0c0c"/>
      <stop offset="100%" stop-color="#080808"/>
    </linearGradient>
  </defs>
  <rect x="0.5" y="0.5" width="1199" height="399" rx="16" fill="url(#bg)" stroke="#1c1c1c"/>
  <rect x="0.5" y="0.5" width="1199" height="399" rx="16" fill="url(#glow)"/>
  <text x="72" y="92" font-family="ui-monospace,monospace" font-size="13" letter-spacing="2.5" fill="#5fa8ff">TILED TERMINALS · MARKDOWN · ONE WINDOW</text>
  <text x="70" y="160" font-family="sans-serif" font-size="78" font-weight="700" letter-spacing="-3" fill="#ffffff">Lume</text>
  <rect x="232" y="138" width="15" height="4" rx="2" fill="#5fa8ff"/>
  <text x="72" y="212" font-family="sans-serif" font-size="31" font-weight="600" fill="#e6e6e6">A command center for a</text>
  <text x="72" y="250" font-family="sans-serif" font-size="31" font-weight="600" fill="#e6e6e6">fleet of coding agents.</text>
  <text x="72" y="300" font-family="ui-monospace,monospace" font-size="15" fill="#9a9a9a">Claude Code · Codex · Gemini — smooth enough</text>
  <text x="72" y="322" font-family="ui-monospace,monospace" font-size="15" fill="#9a9a9a">to forget they&apos;re running.</text>
  <g>
    <rect x="696" y="56" width="440" height="288" rx="10" fill="#131313" stroke="#262626"/>
    <text x="712" y="74" font-family="ui-monospace,monospace" font-size="11" fill="#6a6a6a">Lume</text>
    <text x="748" y="74" font-family="ui-monospace,monospace" font-size="11" fill="#6a6a6a">~/projects/auth</text>
    <circle cx="1124" cy="69" r="3" fill="#7fc26b"/>
    <line x1="696" y1="86" x2="1136" y2="86" stroke="#222222"/>
    <rect x="696" y="86" width="46" height="258" fill="#0f0f0f"/>
    <rect x="708" y="100" width="18" height="3" rx="1.5" fill="#3a3a3a"/>
    <rect x="708" y="116" width="18" height="3" rx="1.5" fill="#2f7dc" opacity="0.6"/>
    <rect x="708" y="132" width="18" height="3" rx="1.5" fill="#3a3a3a"/>
    <rect x="708" y="148" width="18" height="3" rx="1.5" fill="#3a3a3a"/>
    <circle cx="732" cy="101.5" r="2.5" fill="#5fa8ff"/>
    <line x1="938" y1="86" x2="938" y2="215" stroke="#222222"/>
    <line x1="742" y1="215" x2="1136" y2="215" stroke="#222222"/>
    <text x="752" y="104" font-family="ui-monospace,monospace" font-size="10" fill="#5fa8ff">✻ Claude</text>
    <circle cx="1130" cy="100" r="3" fill="#5fa8ff"/>
    <text x="752" y="122" font-family="ui-monospace,monospace" font-size="9" fill="#e6e6e6">⏺ Update session.ts</text>
    <text x="752" y="136" font-family="ui-monospace,monospace" font-size="9" fill="#9a9a9a">+ async refresh()</text>
    <text x="752" y="150" font-family="ui-monospace,monospace" font-size="9" fill="#6a6a6a">- localStorage</text>
    <text x="948" y="104" font-family="ui-monospace,monospace" font-size="10" fill="#e6e6e6">▌ Codex</text>
    <text x="948" y="122" font-family="ui-monospace,monospace" font-size="9" fill="#9a9a9a">› npm run dev</text>
    <text x="948" y="136" font-family="ui-monospace,monospace" font-size="9" fill="#7fc26b">✓ ready 240ms</text>
    <text x="948" y="150" font-family="ui-monospace,monospace" font-size="9" fill="#6a6a6a">➜ local:5173</text>
    <text x="752" y="233" font-family="ui-monospace,monospace" font-size="10" fill="#5fa8ff">✦ Gemini</text>
    <text x="752" y="251" font-family="ui-monospace,monospace" font-size="9" fill="#e6e6e6">review the diff</text>
    <text x="752" y="265" font-family="ui-monospace,monospace" font-size="9" fill="#9a9a9a">3 files · +84 −12</text>
    <text x="752" y="279" font-family="ui-monospace,monospace" font-size="9" fill="#6a6a6a">✦ thinking…</text>
    <text x="712" y="334" font-family="ui-monospace,monospace" font-size="9" fill="#6a6a6a">3 panes · 3 agents live</text>
    <circle cx="1108" cy="331" r="2.5" fill="#7fc26b"/>
  </g>
</svg>