<svg xmlns="http://www.w3.org/2000/svg" width="1200" height="190" viewBox="0 0 1200 190" role="img" aria-label="Lume theme palettes">
  <g>
    <rect x="64" y="36" width="270" height="130" rx="12" fill="#0a0a0a" stroke="#222222"/>
    <circle cx="90" cy="66" r="6" fill="#5fa8ff"/>
    <text x="108" y="71" font-family="sans-serif" font-size="17" font-weight="600" fill="#ffffff">Cobalt</text>
  <text x="250" y="70" font-family="ui-monospace,monospace" font-size="10" fill="#6a6a6a">default</text>
    <line x1="84" y1="90" x2="314" y2="90" stroke="#222222"/>
    <text x="84" y="110" font-family="ui-monospace,monospace" font-size="11" fill="#5fa8ff">✻ agent</text>
    <text x="84" y="128" font-family="ui-monospace,monospace" font-size="11" fill="#9a9a9a">▌ building</text>
    <text x="84" y="146" font-family="ui-monospace,monospace" font-size="11" fill="#7fc26b">✦ done</text>
  </g>
  <g>
    <rect x="354" y="36" width="270" height="130" rx="12" fill="#1a1a1a" stroke="#2c2c2c"/>
    <circle cx="380" cy="66" r="6" fill="#ff8a65"/>
    <text x="398" y="71" font-family="sans-serif" font-size="17" font-weight="600" fill="#ffffff">Coral</text>

    <line x1="374" y1="90" x2="604" y2="90" stroke="#2c2c2c"/>
    <text x="374" y="110" font-family="ui-monospace,monospace" font-size="11" fill="#ff8a65">✻ agent</text>
    <text x="374" y="128" font-family="ui-monospace,monospace" font-size="11" fill="#9a9a9a">▌ building</text>
    <text x="374" y="146" font-family="ui-monospace,monospace" font-size="11" fill="#7fc26b">✦ done</text>
  </g>
  <g>
    <rect x="644" y="36" width="270" height="130" rx="12" fill="#1a1b26" stroke="#292e42"/>
    <circle cx="670" cy="66" r="6" fill="#7dcfff"/>
    <text x="688" y="71" font-family="sans-serif" font-size="17" font-weight="600" fill="#ffffff">Tokyo Night</text>

    <line x1="664" y1="90" x2="894" y2="90" stroke="#292e42"/>
    <text x="664" y="110" font-family="ui-monospace,monospace" font-size="11" fill="#7dcfff">✻ agent</text>
    <text x="664" y="128" font-family="ui-monospace,monospace" font-size="11" fill="#9aa5ce">▌ building</text>
    <text x="664" y="146" font-family="ui-monospace,monospace" font-size="11" fill="#9ece6a">✦ done</text>
  </g>
  <g>
    <rect x="934" y="36" width="270" height="130" rx="12" fill="#282828" stroke="#504945"/>
    <circle cx="960" cy="66" r="6" fill="#fe8019"/>
    <text x="978" y="71" font-family="sans-serif" font-size="17" font-weight="600" fill="#fbf1c7">Gruvbox</text>

    <line x1="954" y1="90" x2="1184" y2="90" stroke="#504945"/>
    <text x="954" y="110" font-family="ui-monospace,monospace" font-size="11" fill="#fe8019">✻ agent</text>
    <text x="954" y="128" font-family="ui-monospace,monospace" font-size="11" fill="#d5c4a1">▌ building</text>
    <text x="954" y="146" font-family="ui-monospace,monospace" font-size="11" fill="#b8bb26">✦ done</text>
  </g>
</svg>